# xmcd CD database file
# Copyright (C) 1997 Ti Kan
#
# Track frame offsets:
#  150
#  21305
#  48342
#  70255
#  95500
#  113712
#  134522
#  152125
#  171850
#  188585
#  211630
#  240730
#  262887
#  289275
#
# Disc length: 4229 seconds
#
# Revision: 1
# Processed by: cddbd v1.4b41PL1 Copyright (c) Steve Scherf et al.
# Submitted via: CDWizzard Release:4.31
#
DISCID=c310830e
DTITLE=Enchantment - The Best of Enchantment
DYEAR=1900
DGENRE=
TTITLE0=If You're Ready (Here it Comes)
TTITLE1=It's You That I Need
TTITLE2=Sunshine
TTITLE3=Gloria
TTITLE4=Dance to the Music
TTITLE5=My Rose
TTITLE6=Thank You Girl for Loving Me
TTITLE7=Come on and Ride
TTITLE8=Sunny Shine Feeling
TTITLE9=You Must Be an Angel/Up Higher
TTITLE10=Hold On
TTITLE11=Silly Love Song
TTITLE12=Trying to Get Over (With You)
TTITLE13=Where Do We Go From Here/Journey
EXTD=
EXTT0=
EXTT1=
EXTT2=
EXTT3=
EXTT4=
EXTT5=
EXTT6=
EXTT7=
EXTT8=
EXTT9=
EXTT10=
EXTT11=
EXTT12=
EXTT13=
PLAYORDER=
